<?xml version="1.0" encoding="utf-8"?>
<svg viewBox="774.67 303.809 73.876 8.602" xmlns="http://www.w3.org/2000/svg">
  <g fill="#ffffff" fill-opacity="1" transform="matrix(1, 0, 0, 1, 726.330882, 259.395878)">
    <g transform="translate(48.182673, 52.858454)">
      <g>
        <path d="M 7.027344 0.0234375 L 7.480469 -0.0117188 L 7.707031 0.0117188 L 8.078125 0 L 8.410156 -0.0585938 L 8.445312 -0.34375 L 8.363281 -0.621094 L 8.183594 -1.058594 L 7.863281 -1.679688 L 7.695312 -2.121094 L 7.457031 -2.550781 L 7.003906 -3.632812 L 6.886719 -3.8125 L 6.765625 -4.039062 L 6.695312 -4.300781 L 6.585938 -4.480469 L 6.515625 -4.667969 L 6.265625 -5.109375 L 6.183594 -5.359375 L 5.394531 -7.015625 L 5.324219 -7.253906 L 5.195312 -7.46875 L 5.121094 -7.683594 L 4.894531 -8.101562 L 4.691406 -8.3125 L 4.300781 -8.433594 L 3.917969 -8.300781 L 3.703125 -8.101562 L 3.597656 -7.898438 L 3.515625 -7.660156 L 3.40625 -7.492188 L 2.929688 -6.398438 L 2.800781 -6.21875 L 2.738281 -5.980469 L 2.609375 -5.753906 L 2.539062 -5.539062 L 1.320312 -2.988281 L 1.25 -2.726562 L 1.132812 -2.550781 L 1.046875 -2.3125 L 0.832031 -1.929688 L 0.65625 -1.453125 L 0.523438 -1.285156 L 0.464844 -1.070312 L 0.226562 -0.59375 L 0.15625 -0.355469 L 0.214844 -0.0585938 L 0.453125 0.0117188 L 0.917969 -0.0117188 L 1.15625 0.0117188 L 1.824219 -0.0117188 L 2.097656 -0.09375 L 2.324219 -0.308594 L 2.539062 -0.703125 L 2.761719 -0.929688 L 3.015625 -1.058594 L 3.238281 -1.023438 L 3.742188 -1.070312 L 3.953125 -1.035156 L 5.121094 -1.046875 L 5.335938 -1.023438 L 5.597656 -1.058594 L 5.859375 -0.929688 L 6.085938 -0.738281 L 6.195312 -0.511719 L 6.265625 -0.296875 L 6.503906 -0.117188 L 6.777344 0 Z M 4.324219 -2.941406 L 4.085938 -2.988281 L 3.8125 -2.964844 L 3.621094 -3.050781 L 3.609375 -3.277344 L 4.167969 -4.5625 L 4.300781 -4.667969 L 4.46875 -4.574219 L 5.027344 -3.265625 L 4.980469 -3.050781 L 4.800781 -2.953125 Z M 4.324219 -2.941406 "/>
      </g>
    </g>
  </g>
  <g fill="#ffffff" fill-opacity="1" transform="matrix(1, 0, 0, 1, 726.330882, 259.395878)">
    <g transform="translate(56.830635, 52.858454)">
      <g>
        <path d="M 0.882812 -0.34375 L 0.988281 -0.132812 L 1.273438 0 L 2.585938 -0.0234375 L 2.941406 -0.132812 L 3.074219 -0.320312 L 3.097656 -0.546875 L 3.085938 -0.796875 L 3.050781 -1.046875 L 3.085938 -2.65625 L 3.039062 -3.347656 L 3.144531 -3.515625 L 3.324219 -3.464844 L 3.621094 -3.097656 L 4.289062 -2.464844 L 4.441406 -2.261719 L 4.835938 -1.941406 L 5.109375 -1.941406 L 5.3125 -2.085938 L 6.3125 -3.097656 L 6.46875 -3.300781 L 6.636719 -3.464844 L 6.777344 -3.488281 L 6.875 -3.347656 L 6.910156 -3.109375 L 6.875 -2.882812 L 6.886719 -2.667969 L 6.875 -2.429688 L 6.910156 -1.988281 L 6.875 -0.34375 L 6.992188 -0.09375 L 7.253906 0 L 8.683594 0.0117188 L 8.910156 -0.132812 L 9.042969 -0.382812 L 9.078125 -0.621094 L 9.027344 -2.046875 L 9.054688 -2.273438 L 9.027344 -2.738281 L 9.066406 -2.976562 L 9.054688 -3.214844 L 9.078125 -3.464844 L 9.054688 -3.703125 L 9.089844 -3.917969 L 9.054688 -7.289062 L 9.078125 -7.539062 L 9.054688 -7.742188 L 9.066406 -7.992188 L 8.933594 -8.21875 L 8.695312 -8.363281 L 8.339844 -8.253906 L 8.039062 -8.089844 L 7.765625 -7.753906 L 7.085938 -7.050781 L 6.980469 -6.875 L 5.21875 -5.003906 L 4.957031 -4.917969 L 4.742188 -4.992188 L 4.585938 -5.144531 L 4.441406 -5.347656 L 4.253906 -5.503906 L 4.109375 -5.695312 L 3.289062 -6.539062 L 3 -6.898438 L 2.800781 -7.074219 L 2.644531 -7.242188 L 2.511719 -7.421875 L 2.347656 -7.574219 L 2.214844 -7.742188 L 1.953125 -8.015625 L 1.609375 -8.265625 L 1.261719 -8.363281 L 1.023438 -8.230469 L 0.894531 -7.992188 L 0.871094 -7.742188 L 0.90625 -2.488281 L 0.859375 -2.261719 L 0.90625 -0.570312 Z M 0.882812 -0.34375 "/>
      </g>
    </g>
  </g>
  <g fill="#ffffff" fill-opacity="1" transform="matrix(1, 0, 0, 1, 726.330882, 259.395878)">
    <g transform="translate(66.788886, 52.858454)">
      <g>
        <path d="M 0.871094 -0.355469 L 1 -0.0820312 L 1.226562 0.0234375 L 5.167969 -0.0234375 L 5.621094 -0.0820312 L 6.015625 -0.238281 L 6.46875 -0.5 L 6.621094 -0.621094 L 6.8125 -0.796875 L 7.085938 -1.191406 L 7.195312 -1.417969 L 7.242188 -1.621094 L 7.335938 -1.859375 L 7.347656 -2.8125 L 7.300781 -3.039062 L 7.21875 -3.289062 L 7.003906 -3.703125 L 6.835938 -3.90625 L 6.660156 -4.085938 L 6.550781 -4.347656 L 6.597656 -4.585938 L 6.730469 -4.824219 L 6.875 -5.027344 L 7.039062 -5.882812 L 7.027344 -6.230469 L 6.898438 -6.671875 L 6.777344 -6.898438 L 6.707031 -7.125 L 6.421875 -7.503906 L 6.253906 -7.671875 L 5.894531 -7.921875 L 5.457031 -8.160156 L 4.789062 -8.3125 L 1.203125 -8.339844 L 0.964844 -8.230469 L 0.859375 -7.980469 L 0.882812 -7.46875 L 0.859375 -7.125 L 0.90625 -6.324219 L 0.871094 -6.074219 L 0.894531 -5.824219 L 0.871094 -5.597656 L 0.882812 -5.347656 L 0.859375 -5.121094 L 0.859375 -4.167969 L 0.894531 -3.917969 L 0.871094 -3.691406 L 0.871094 -3.214844 L 0.894531 -2.988281 L 0.871094 -2.011719 L 0.90625 -1.523438 L 0.859375 -0.808594 Z M 3.3125 -5.109375 L 3.027344 -5.207031 L 2.90625 -5.445312 L 2.953125 -5.644531 L 2.953125 -5.871094 L 2.929688 -6.097656 L 3.0625 -6.300781 L 3.3125 -6.433594 L 4.167969 -6.398438 L 4.539062 -6.324219 L 4.679688 -6.230469 L 4.835938 -6.0625 L 4.871094 -5.742188 L 4.8125 -5.382812 L 4.609375 -5.195312 L 4.203125 -5.109375 Z M 3.277344 -1.894531 L 3.074219 -1.988281 L 2.941406 -2.238281 L 2.953125 -2.441406 L 2.929688 -2.667969 L 2.941406 -2.90625 L 3.027344 -3.121094 L 3.265625 -3.238281 L 4.527344 -3.238281 L 4.859375 -3.179688 L 5.039062 -3.050781 L 5.21875 -2.882812 L 5.242188 -2.550781 L 5.21875 -2.238281 L 5.0625 -2.074219 L 4.847656 -1.941406 L 4.203125 -1.882812 Z M 3.277344 -1.894531 "/>
      </g>
    </g>
  </g>
  <g fill="#ffffff" fill-opacity="1" transform="matrix(1, 0, 0, 1, 726.330882, 259.395878)">
    <g transform="translate(74.650671, 52.858454)">
      <g>
        <path d="M 3.515625 0.09375 L 4.085938 0.144531 L 4.679688 0.117188 L 5.15625 0.0117188 L 5.40625 -0.0820312 L 5.644531 -0.144531 L 5.835938 -0.261719 L 6.050781 -0.355469 L 6.242188 -0.488281 L 6.777344 -0.964844 L 6.910156 -1.179688 L 7.0625 -1.359375 L 7.136719 -1.597656 L 7.253906 -1.796875 L 7.335938 -2.023438 L 7.421875 -3.226562 L 7.386719 -4.191406 L 7.433594 -4.441406 L 7.433594 -4.65625 L 7.386719 -4.894531 L 7.375 -5.121094 L 7.398438 -5.371094 L 7.386719 -5.707031 L 7.410156 -6.074219 L 7.398438 -6.335938 L 7.433594 -6.5625 L 7.398438 -6.800781 L 7.410156 -7.765625 L 7.375 -7.96875 L 7.277344 -8.230469 L 6.898438 -8.339844 L 5.777344 -8.351562 L 5.515625 -8.242188 L 5.394531 -7.980469 L 5.40625 -6.8125 L 5.382812 -6.574219 L 5.394531 -6.109375 L 5.371094 -5.859375 L 5.40625 -5.609375 L 5.371094 -4.667969 L 5.417969 -4.453125 L 5.394531 -4.191406 L 5.40625 -3.765625 L 5.382812 -3.527344 L 5.394531 -2.917969 L 5.347656 -2.539062 L 5.242188 -2.3125 L 5.132812 -2.144531 L 4.945312 -1.964844 L 4.46875 -1.8125 L 4.144531 -1.785156 L 3.753906 -1.8125 L 3.539062 -1.871094 L 3.277344 -2 L 3.097656 -2.15625 L 2.953125 -2.324219 L 2.882812 -2.574219 L 2.859375 -4.667969 L 2.824219 -4.90625 L 2.8125 -5.644531 L 2.835938 -5.859375 L 2.835938 -6.8125 L 2.800781 -7.160156 L 2.800781 -7.386719 L 2.859375 -7.742188 L 2.859375 -7.992188 L 2.726562 -8.21875 L 2.441406 -8.328125 L 1.191406 -8.339844 L 0.953125 -8.207031 L 0.847656 -7.96875 L 0.847656 -7.253906 L 0.785156 -7.050781 L 0.832031 -6.550781 L 0.796875 -6.097656 L 0.859375 -5.382812 L 0.808594 -5.15625 L 0.847656 -4.894531 L 0.820312 -4.667969 L 0.832031 -4.429688 L 0.808594 -4.203125 L 0.847656 -3.726562 L 0.832031 -2.871094 L 0.871094 -2.523438 L 0.871094 -2.273438 L 0.941406 -2.035156 L 0.976562 -1.8125 L 1.046875 -1.585938 L 1.285156 -1.179688 L 1.609375 -0.785156 L 1.761719 -0.632812 L 2.167969 -0.394531 L 2.347656 -0.25 L 2.574219 -0.15625 L 2.847656 -0.0703125 L 3.027344 0.0234375 L 3.289062 0.0351562 Z M 3.515625 0.09375 "/>
      </g>
    </g>
  </g>
  <g fill="#ffffff" fill-opacity="1" transform="matrix(1, 0, 0, 1, 726.330882, 259.395878)">
    <g transform="translate(82.869806, 52.858454)">
      <g>
        <path d="M 0.894531 -0.34375 L 1 -0.132812 L 1.382812 0.0117188 L 5.597656 -0.0117188 L 5.933594 -0.132812 L 6.0625 -0.34375 L 6.039062 -0.609375 L 6.050781 -0.847656 L 6.074219 -1.058594 L 6.039062 -1.320312 L 6.074219 -1.546875 L 5.921875 -1.8125 L 5.730469 -1.929688 L 5.46875 -1.894531 L 3.371094 -1.917969 L 3.121094 -2.023438 L 3.050781 -2.285156 L 3.0625 -2.726562 L 3.027344 -2.953125 L 3.039062 -3.214844 L 3.015625 -3.453125 L 3.039062 -3.703125 L 3.027344 -4.300781 L 3.0625 -4.632812 L 3.027344 -4.894531 L 3.0625 -5.144531 L 3.027344 -7.003906 L 3.050781 -7.265625 L 3.027344 -7.851562 L 2.90625 -8.207031 L 2.597656 -8.351562 L 1.359375 -8.328125 L 1.011719 -8.195312 L 0.859375 -7.875 L 0.929688 -7.253906 L 0.90625 -7.027344 L 0.871094 -6.777344 L 0.90625 -6.539062 L 0.929688 -6.3125 L 0.894531 -6.050781 L 0.90625 -5.824219 L 0.882812 -5.585938 L 0.917969 -5.335938 L 0.882812 -5.121094 L 0.90625 -4.882812 L 0.871094 -4.65625 L 0.90625 -4.144531 L 0.871094 -3.917969 L 0.90625 -3.441406 L 0.871094 -3.203125 L 0.882812 -2.726562 L 0.90625 -2.511719 L 0.894531 -1.058594 L 0.917969 -0.820312 L 0.871094 -0.59375 Z M 0.894531 -0.34375 "/>
      </g>
    </g>
  </g>
  <g fill="#ffffff" fill-opacity="1" transform="matrix(1, 0, 0, 1, 726.330882, 259.395878)">
    <g transform="translate(89.278348, 52.858454)">
      <g>
        <path d="M 0.15625 -0.320312 L 0.214844 -0.0703125 L 0.453125 -0.0117188 L 1.5 -0.0117188 L 1.8125 0.0234375 L 2.085938 -0.09375 L 2.300781 -0.308594 L 2.5 -0.714844 L 2.703125 -0.941406 L 2.988281 -1.058594 L 3.226562 -1.035156 L 3.894531 -1.046875 L 4.144531 -1.011719 L 4.417969 -1.046875 L 4.632812 -1.046875 L 4.882812 -1.023438 L 5.445312 -1.046875 L 5.835938 -0.917969 L 6.085938 -0.726562 L 6.144531 -0.511719 L 6.277344 -0.296875 L 6.480469 -0.105469 L 6.789062 0.0117188 L 7.003906 -0.0117188 L 7.421875 0.0234375 L 8.160156 0 L 8.375 -0.0703125 L 8.421875 -0.320312 L 8.351562 -0.621094 L 8.265625 -0.832031 L 8.113281 -1.035156 L 8.039062 -1.273438 L 7.921875 -1.453125 L 7.851562 -1.679688 L 7.648438 -2.109375 L 7.5625 -2.335938 L 7.445312 -2.539062 L 7.277344 -2.976562 L 7.148438 -3.167969 L 7.050781 -3.40625 L 6.945312 -3.609375 L 6.859375 -3.847656 L 6.753906 -4.027344 L 6.683594 -4.265625 L 6.550781 -4.480469 L 6.457031 -4.679688 L 6.335938 -4.882812 L 6.277344 -5.109375 L 6.039062 -5.527344 L 5.96875 -5.753906 L 5.753906 -6.207031 L 5.695312 -6.398438 L 5.515625 -6.8125 L 5.277344 -7.253906 L 5.085938 -7.707031 L 4.980469 -7.886719 L 4.90625 -8.113281 L 4.691406 -8.339844 L 4.289062 -8.445312 L 3.90625 -8.328125 L 3.679688 -8.113281 L 3.609375 -7.898438 L 3.097656 -6.824219 L 2.964844 -6.609375 L 2.300781 -5.109375 L 2.238281 -4.90625 L 2.109375 -4.691406 L 1.917969 -4.265625 L 1.738281 -3.953125 L 1.65625 -3.726562 L 1.488281 -3.417969 L 1.417969 -3.167969 L 1.308594 -2.976562 L 1.226562 -2.738281 L 0.894531 -2.121094 L 0.546875 -1.25 L 0.40625 -1.058594 L 0.296875 -0.820312 Z M 3.835938 -2.941406 L 3.609375 -3.039062 L 3.574219 -3.277344 L 4.050781 -4.359375 L 4.15625 -4.550781 L 4.3125 -4.667969 L 4.453125 -4.574219 L 4.609375 -4.109375 L 4.742188 -3.90625 L 4.789062 -3.714844 L 4.90625 -3.476562 L 4.992188 -3.265625 L 4.96875 -3.050781 L 4.765625 -2.953125 Z M 3.835938 -2.941406 "/>
      </g>
    </g>
  </g>
  <g fill="#ffffff" fill-opacity="1" transform="matrix(1, 0, 0, 1, 726.330882, 259.395878)">
    <g transform="translate(97.926309, 52.858454)">
      <g>
        <path d="M 7.027344 -0.191406 L 7.375 -0.0351562 L 7.683594 0.0585938 L 7.957031 -0.0703125 L 8.0625 -0.320312 L 8.125 -3.5625 L 8.078125 -3.894531 L 8.101562 -4.15625 L 8.050781 -5.585938 L 8.089844 -6.0625 L 8.0625 -6.289062 L 8.0625 -6.765625 L 8.113281 -7.003906 L 8.089844 -7.363281 L 8.113281 -7.980469 L 7.96875 -8.195312 L 7.707031 -8.3125 L 7.46875 -8.339844 L 7.242188 -8.339844 L 6.980469 -8.3125 L 6.730469 -8.351562 L 6.515625 -8.328125 L 6.277344 -8.339844 L 5.992188 -8.21875 L 5.871094 -7.96875 L 5.859375 -5.800781 L 5.910156 -5.550781 L 5.910156 -5.324219 L 5.859375 -5.074219 L 5.871094 -4.597656 L 5.8125 -4.40625 L 5.644531 -4.453125 L 5.121094 -4.992188 L 4.945312 -5.132812 L 4.527344 -5.5625 L 4.335938 -5.707031 L 4.203125 -5.871094 L 3.953125 -6.132812 L 3.585938 -6.445312 L 3.453125 -6.621094 L 3.226562 -6.777344 L 3.109375 -6.957031 L 2.90625 -7.097656 L 2.75 -7.300781 L 2.109375 -7.957031 L 1.632812 -8.277344 L 1.308594 -8.375 L 1.023438 -8.230469 L 0.871094 -8.003906 L 0.894531 -6.335938 L 0.871094 -6.097656 L 0.90625 -5.609375 L 0.882812 -5.394531 L 0.894531 -5.144531 L 0.859375 -4.894531 L 0.90625 -3.191406 L 0.882812 -2.976562 L 0.882812 -2.75 L 0.859375 -2.488281 L 0.859375 -2.261719 L 0.894531 -2.011719 L 0.882812 -1.523438 L 0.90625 -1.285156 L 0.871094 -0.832031 L 0.90625 -0.59375 L 0.90625 -0.371094 L 1.011719 -0.105469 L 1.238281 0.0234375 L 1.644531 0 L 2.238281 0.0351562 L 2.488281 0 L 2.761719 0.0234375 L 3 -0.09375 L 3.109375 -0.332031 L 3.074219 -0.570312 L 3.109375 -3.488281 L 3.0625 -3.742188 L 3.179688 -3.882812 L 3.335938 -3.847656 L 5.039062 -2.179688 L 5.230469 -2.023438 L 6.382812 -0.871094 L 6.539062 -0.679688 L 6.730469 -0.523438 L 6.875 -0.34375 Z M 7.027344 -0.191406 "/>
      </g>
    </g>
  </g>
  <g fill="#ffffff" fill-opacity="1" transform="matrix(1, 0, 0, 1, 726.330882, 259.395878)">
    <g transform="translate(106.907798, 52.858454)">
      <g>
        <path d="M 4.382812 0.117188 L 5.097656 0.15625 L 6.253906 -0.0820312 L 6.910156 -0.371094 L 7.085938 -0.488281 L 7.300781 -0.621094 L 7.503906 -0.761719 L 7.660156 -0.917969 L 7.789062 -1.121094 L 7.992188 -1.273438 L 8.351562 -1.894531 L 8.457031 -2.109375 L 8.515625 -2.335938 L 8.601562 -2.574219 L 8.636719 -2.800781 L 8.566406 -3.015625 L 8.265625 -3.144531 L 6.992188 -3.15625 L 6.730469 -3.039062 L 6.492188 -2.8125 L 6.398438 -2.609375 L 5.945312 -2.121094 L 5.539062 -1.917969 L 5.300781 -1.847656 L 5.050781 -1.824219 L 4.382812 -1.835938 L 3.742188 -2.074219 L 3.515625 -2.179688 L 3.359375 -2.347656 L 2.917969 -2.917969 L 2.824219 -3.121094 L 2.679688 -3.585938 L 2.644531 -4.144531 L 2.65625 -4.527344 L 2.738281 -4.742188 L 2.75 -4.980469 L 2.824219 -5.195312 L 3.027344 -5.621094 L 3.324219 -5.992188 L 3.714844 -6.277344 L 3.941406 -6.371094 L 4.359375 -6.492188 L 5.097656 -6.46875 L 5.550781 -6.382812 L 5.800781 -6.300781 L 6.144531 -6.015625 L 6.324219 -5.824219 L 6.433594 -5.621094 L 6.648438 -5.394531 L 6.910156 -5.289062 L 8.113281 -5.265625 L 8.351562 -5.289062 L 8.539062 -5.394531 L 8.613281 -5.644531 L 8.515625 -5.882812 L 8.480469 -6.097656 L 8.289062 -6.550781 L 7.851562 -7.160156 L 7.230469 -7.71875 L 6.96875 -7.898438 L 6.289062 -8.207031 L 5.824219 -8.339844 L 5.230469 -8.421875 L 4.144531 -8.421875 L 3.941406 -8.398438 L 3.714844 -8.328125 L 3.25 -8.230469 L 3.027344 -8.148438 L 2.847656 -8.039062 L 2.632812 -7.957031 L 1.796875 -7.421875 L 1.65625 -7.230469 L 1.335938 -6.933594 L 1.191406 -6.730469 L 0.644531 -5.65625 L 0.429688 -4.167969 L 0.476562 -3.789062 L 0.476562 -3.3125 L 0.59375 -2.847656 L 0.691406 -2.621094 L 0.726562 -2.40625 L 0.847656 -2.191406 L 0.929688 -1.988281 L 1.40625 -1.296875 L 1.835938 -0.882812 L 2.035156 -0.75 L 2.214844 -0.609375 L 3.027344 -0.167969 L 3.265625 -0.0820312 L 3.441406 -0.0351562 L 3.691406 0.046875 L 3.941406 0.0703125 L 4.15625 0.117188 Z M 4.382812 0.117188 "/>
      </g>
    </g>
  </g>
  <g fill="#ffffff" fill-opacity="1" transform="matrix(1, 0, 0, 1, 726.330882, 259.395878)">
    <g transform="translate(115.996491, 52.858454)">
      <g>
        <path d="M 0.859375 -0.34375 L 1.011719 -0.117188 L 1.238281 0.0117188 L 3.929688 -0.0117188 L 4.144531 0.0234375 L 4.871094 -0.0117188 L 5.597656 0.0351562 L 5.824219 0.0117188 L 6.074219 -0.105469 L 6.183594 -0.332031 L 6.207031 -0.558594 L 6.195312 -1.296875 L 6.21875 -1.523438 L 6.0625 -1.761719 L 5.707031 -1.882812 L 4.132812 -1.90625 L 3.90625 -1.871094 L 3.644531 -1.894531 L 3.382812 -1.871094 L 3.132812 -2.011719 L 3.027344 -2.382812 L 3.039062 -2.964844 L 3.144531 -3.214844 L 3.359375 -3.347656 L 3.824219 -3.347656 L 4.0625 -3.371094 L 4.691406 -3.335938 L 5.015625 -3.359375 L 5.265625 -3.335938 L 5.480469 -3.347656 L 5.71875 -3.476562 L 5.835938 -3.703125 L 5.859375 -4.644531 L 5.835938 -4.882812 L 5.730469 -5.109375 L 5.527344 -5.242188 L 5.050781 -5.253906 L 4.8125 -5.230469 L 4.5625 -5.230469 L 4.289062 -5.253906 L 3.347656 -5.242188 L 3.144531 -5.371094 L 3 -5.585938 L 2.976562 -5.957031 L 3.097656 -6.300781 L 3.464844 -6.410156 L 5.753906 -6.421875 L 6.003906 -6.550781 L 6.132812 -6.765625 L 6.109375 -7.253906 L 6.074219 -7.480469 L 6.085938 -7.742188 L 6.121094 -7.96875 L 6.003906 -8.207031 L 5.753906 -8.3125 L 4.800781 -8.328125 L 4.585938 -8.300781 L 4.347656 -8.339844 L 3.824219 -8.3125 L 3.585938 -8.339844 L 3.121094 -8.328125 L 2.90625 -8.351562 L 1.347656 -8.3125 L 1 -8.230469 L 0.882812 -7.96875 L 0.90625 -7.492188 L 0.859375 -7.148438 L 0.90625 -6.539062 L 0.882812 -6.289062 L 0.90625 -6.074219 L 0.90625 -3.941406 L 0.871094 -3.691406 L 0.90625 -3.226562 L 0.882812 -2.75 L 0.917969 -2.5 L 0.894531 -2.238281 L 0.90625 -2.011719 L 0.871094 -1.796875 L 0.894531 -1.523438 L 0.894531 -1.285156 L 0.917969 -0.820312 L 0.90625 -0.582031 Z M 0.859375 -0.34375 "/>
      </g>
    </g>
  </g>
</svg>